<svg class="logo-principal" xmlns="http://www.w3.org/2000/svg" width="344" height="137" viewBox="0 0 344 137"><style>.a{fill:#FFF;}</style><path d="M26.4 103.8c-18.6 0-26-8.2-26-26.7V1.7C0.4 0.7 1.1 0 2.1 0h20.9c1.1 0 1.7 0.7 1.7 1.7v73.3c0 5.8 2.3 8 7.3 8h3.7c1 0 1.7 0.7 1.7 1.7v17.2c0 1-0.7 1.7-1.7 1.7h-9.2V103.8z" class="a"/><path d="M47.7 80.6c-1.7-5.2-3-11.3-3-20 0-8.9 1-15 2.8-20.2 4.9-15.1 18.3-23.7 36.1-23.7 18.6 0 31.4 8.9 36.3 23.6 1.7 5.6 2.8 11.7 2.8 25.8 0 1-0.7 1.7-1.9 1.7H69.9c-0.7 0-1 0.4-1 1 0.2 1.7 0.5 3.3 1 4.7 2.3 7.4 8.7 11.2 17.4 11.2 8.4 0 14.5-3 19.3-7.5 0.9-0.7 1.7-0.9 2.4 0l11.5 10.8c0.9 0.7 0.9 1.7 0.2 2.4 -8 8.5-20.4 14.1-35.8 14.1C65.7 104.6 52.6 95.8 47.7 80.6zM97.7 51.8c0.7 0 1-0.3 1-1 0-2.6-0.3-4.5-0.9-6.3 -1.9-5.7-7.1-9.2-14.1-9.2s-12.2 3.5-14.1 9.2c-0.5 1.7-0.9 3.7-0.9 6.3 0 0.7 0.4 1 1 1H97.7z" class="a"/><path d="M157.2 102.7c-1 0-1.7-0.7-2.1-1.7l-29.8-80.6c-0.3-1 0.2-1.7 1.4-1.7h21.9c1.2 0 1.9 0.5 2.3 1.7l16.4 49.9h0.4l15.7-49.9c0.4-1.2 1-1.7 2.3-1.7h21.6c1.2 0 1.7 0.7 1.4 1.7l-29.8 80.6c-0.3 1-1 1.7-2.1 1.7H157.2z" class="a"/><path d="M221.2 102.7c-1 0-1.7-0.7-1.7-1.7V20.4c0-1 0.7-1.7 1.7-1.7h20.9c1 0 1.7 0.7 1.7 1.7v80.6c0 1-0.7 1.7-1.7 1.7H221.2z" class="a"/><path d="M299.6 0c-24.2 0-43.9 19.7-43.9 43.9 0 24.2 19.7 43.9 43.9 43.9 24.2 0 43.9-19.7 43.9-43.9C343.6 19.7 323.9 0 299.6 0zM299.6 63.6c-10.9 0-19.7-8.8-19.7-19.7 0-10.9 8.8-19.7 19.7-19.7 10.9 0 19.7 8.8 19.7 19.7C319.3 54.8 310.5 63.6 299.6 63.6z" fill="#84BD00"/><path d="M12.7 136.7c-0.8 0-1.9 0-3.3 0 -0.1 0-0.2 0-0.2-0.1 -0.2-0.5-0.5-1.1-0.6-1.6H4.4c-0.2 0.5-0.4 1.1-0.6 1.5 0 0.1-0.1 0.2-0.3 0.2 -1.2 0-1.8 0-2.9 0 -0.1 0-0.2-0.1-0.1-0.2 1.8-3.9 4.6-9.5 6-12.1 0 0 0.1 0 0.2 0s0.2 0 0.2 0c1.6 3.1 4.1 8.2 6 12.1C12.9 136.6 12.9 136.7 12.7 136.7zM6.5 130l-1.2 2.7H7.8L6.5 130z" class="a"/><path d="M22 127.5l-4.7-0.1v2.4h4.2c0.2 0 0.2 0.1 0.2 0.2 0 0.7 0.1 1.5 0 2.4 0 0.2-0.1 0.2-0.2 0.2l-4.2-0.1c0 0 0 2.6 0 3.9 0 0.2 0 0.3-0.2 0.3h-2.9c-0.1 0-0.1 0-0.1-0.2 0-3.3 0-7.6 0-11.5 0-0.2 0-0.2 0.1-0.2h7.7c0.1 0 0.1 0 0.1 0.2 0.1 0.8 0.1 1.7 0 2.4C22.1 127.4 22.1 127.5 22 127.5z" class="a"/><path d="M31.7 127.5h-4.7v2.4h4.2c0.2 0 0.2 0.1 0.2 0.2 0 0.7 0.1 1.5 0 2.4 0 0.2-0.1 0.2-0.2 0.2h-4.2c0 0 0 2.6 0 3.9 0 0.2 0 0.3-0.2 0.3h-2.9c-0.1 0-0.1 0-0.1-0.2 0-3.3 0-7.6 0-11.5 0-0.2 0-0.2 0.1-0.2h7.7c0.1 0 0.1 0 0.1 0.2 0.1 0.8 0.1 1.7 0 2.4C31.8 127.4 31.8 127.5 31.7 127.5z" class="a"/><path d="M43.4 136.7c-0.8 0-1.9 0-3.3 0 -0.1 0-0.2 0-0.2-0.1 -0.2-0.5-0.5-1.1-0.6-1.6H35c-0.2 0.5-0.4 1.1-0.6 1.5 0 0.1-0.1 0.2-0.3 0.2 -1.2 0-1.8 0-2.9 0 -0.1 0-0.2-0.1-0.1-0.2 1.8-3.9 4.6-9.5 6-12.1 0 0 0.1 0 0.2 0s0.2 0 0.2 0c1.6 3.1 4.1 8.2 6 12.1C43.6 136.6 43.6 136.7 43.4 136.7zM37.1 130l-1.2 2.7h2.5L37.1 130z" class="a"/><path d="M47.9 136.7c-1.2 0-1.8 0-2.9 0 -0.2 0-0.2 0-0.2-0.2 0-4.5 0-7.4 0-11.6 0-0.2 0-0.2 0.2-0.2 1.1 0 1.8 0 2.9 0 0.2 0 0.2 0 0.2 0.2 0 2.7 0 8.9 0 11.6C48.1 136.6 48.1 136.7 47.9 136.7z" class="a"/><path d="M61.2 136.7h-3.1c-0.1 0-0.2 0-0.4-0.3 -0.6-1.1-1.9-3.2-1.9-3.2h-2c0 0 0 2 0 3.3 0 0.1 0 0.2-0.1 0.2 -1.1 0-1.8 0-2.9 0 -0.1 0-0.1 0-0.1-0.2 0-4.5 0-7.4 0-11.6 0-0.2 0.1-0.2 0.1-0.2h5.5c2.7 0 4.2 1.9 4.2 4 0 1.6-0.6 2.8-1.6 3.3 0.5 0.7 1.5 2.5 2.5 4.2C61.5 136.5 61.4 136.7 61.2 136.7zM55.7 127.3h-1.7v3.5h1.8c1 0 1.5-0.7 1.5-1.8C57.2 128 56.7 127.3 55.7 127.3z" class="a"/><path d="M71.1 136.7h-8c-0.2 0-0.2 0-0.2-0.2 0-3.1 0-8.1 0-11.5 0-0.2 0-0.2 0.2-0.2h8c0.2 0 0.2 0 0.2 0.2 0 0.9 0 1.4 0 2.2 0 0.2 0 0.3-0.2 0.3h-5v2h4.9c0.2 0 0.2 0 0.2 0.3 0 0.9 0 1.5 0 2.2 0 0.2 0 0.3-0.2 0.3h-4.9v2h5.2c0.2 0 0.2 0 0.2 0.2 0 0.9 0 1.6 0 2.3C71.3 136.6 71.3 136.7 71.1 136.7z" class="a"/><path d="M77 137c-2.4 0-3.9-1-4.5-2.7 -0.1-0.2 0-0.3 0.1-0.3l2.2-0.9c0.2 0 0.2 0 0.2 0.1 0.2 0.7 1 1.4 2.1 1.4 1.2 0 1.8-0.4 1.8-1.2 0-0.7-0.5-1.2-2.1-1.4 -0.1 0-0.3 0-0.4 0 -2.1-0.2-3.6-1.4-3.6-3.6 0-2.3 1.6-3.9 4.7-3.9 2.3 0 3.8 1.1 4.3 2.6 0.1 0.2 0 0.3-0.1 0.3l-2.1 0.8c-0.1 0.1-0.2 0-0.2-0.1 -0.2-0.7-1.1-1.4-2-1.4 -1.2 0-1.6 0.5-1.6 1.1 0 0.8 0.7 1.2 2.2 1.4 0.2 0 0.4 0.1 0.6 0.1 2.3 0.3 3.6 1.5 3.6 3.7C82 135.8 79.8 137 77 137z" class="a"/><path d="M95.9 136.7h-8c-0.2 0-0.2 0-0.2-0.2 0-3.1 0-8.1 0-11.5 0-0.2 0-0.2 0.2-0.2h8c0.2 0 0.2 0 0.2 0.2 0 0.9 0 1.4 0 2.2 0 0.2 0 0.3-0.2 0.3h-5v2h4.9c0.2 0 0.2 0 0.2 0.3 0 0.9 0 1.5 0 2.2 0 0.2 0 0.3-0.2 0.3h-4.9v2h5.2c0.2 0 0.2 0 0.2 0.2 0 0.9 0 1.6 0 2.3C96.1 136.6 96.1 136.7 95.9 136.7z" class="a"/><path d="M106.3 127.3h-3c0 0 0 7.9 0 9.3 0 0.1 0 0.2-0.2 0.2 -1.2 0-1.8 0-2.9 0 -0.2 0-0.2 0-0.2-0.2 0-2.2 0-9.2 0-9.2h-3.1c-0.1 0-0.1 0-0.1-0.1 0-1 0-1.1 0-2.3 0-0.1 0-0.2 0.1-0.2h9.3c0.1 0 0.1 0 0.1 0.2C106.3 126.2 106.3 126.3 106.3 127.3 106.4 127.3 106.4 127.3 106.3 127.3z" class="a"/><path d="M120.2 127.3h-3c0 0 0 7.9 0 9.3 0 0.1 0 0.2-0.2 0.2 -1.2 0-1.8 0-2.9 0 -0.2 0-0.2 0-0.2-0.2 0-2.2 0-9.2 0-9.2h-3.1c-0.1 0-0.1 0-0.1-0.1 0-1 0-1.1 0-2.3 0-0.1 0-0.2 0.1-0.2h9.3c0.1 0 0.1 0 0.1 0.2C120.2 126.2 120.2 126.3 120.2 127.3 120.3 127.3 120.3 127.3 120.2 127.3z" class="a"/><path d="M130.2 136.7h-8c-0.2 0-0.2 0-0.2-0.2 0-3.1 0-8.1 0-11.5 0-0.2 0-0.2 0.2-0.2h8c0.2 0 0.2 0 0.2 0.2 0 0.9 0 1.4 0 2.2 0 0.2 0 0.3-0.2 0.3h-5v2h4.9c0.2 0 0.2 0 0.2 0.3 0 0.9 0 1.5 0 2.2 0 0.2 0 0.3-0.2 0.3h-4.9v2h5.2c0.2 0 0.2 0 0.2 0.2 0 0.9 0 1.6 0 2.3C130.4 136.6 130.4 136.7 130.2 136.7z" class="a"/><path d="M137.9 137c-3.7 0-6.2-2.8-6.2-6.2 0-3.6 2.7-6.3 6.2-6.3 2.9 0 4.7 1.6 5.5 3.4 0.1 0.2 0 0.3 0 0.3l-2.6 1c-0.1 0-0.1 0-0.2-0.1 -0.5-1.1-1.4-1.6-2.6-1.6 -1.8 0-2.9 1.4-2.9 3.3 0 2.2 1.5 3.2 2.9 3.2 1.2 0 2-0.6 2.5-1.5 0.1-0.1 0.1-0.2 0.2-0.1l2.6 0.7c0.2 0 0.2 0.1 0.2 0.2C142.6 135.2 140.7 137 137.9 137z" class="a"/><path d="M155 136.7c-1 0-1.7 0-2.8 0 -0.2 0-0.2 0-0.2-0.2 0-1.4 0-4.6 0-4.6h-4c0 0 0 3.3 0 4.7 0 0.1 0 0.2-0.1 0.2 -1.1 0-1.8 0-2.9 0 -0.2 0-0.2 0-0.2-0.2 0-4.5 0-7.4 0-11.6 0-0.2 0-0.2 0.2-0.2 1 0 1.8 0 2.9 0 0.1 0 0.1 0 0.1 0.2 0 1.4 0 4.2 0 4.2h4c0 0 0-2.8 0-4.2 0-0.1 0-0.2 0.2-0.2 1.1 0 1.8 0 2.8 0 0.2 0 0.2 0 0.2 0.2 0 4.1 0 6.9 0 11.6C155.2 136.7 155.2 136.7 155 136.7z" class="a"/><path d="M167.8 137c0 0-0.1 0-0.2 0 -2.7-2-6.8-5.8-6.8-5.8v5.4c0 0.2 0 0.2-0.2 0.2 -1.1 0-1.6 0-2.7 0 -0.1 0-0.2-0.1-0.2-0.2 -0.1-4.5-0.1-7.3 0-11.9 0-0.1 0-0.1 0.1-0.1h0.1c2.5 1.8 6.8 5.8 6.8 5.8v-5.3c0-0.2 0-0.2 0.1-0.2 1.1 0 1.6 0 2.7 0 0.2 0 0.2 0 0.2 0.2 0.1 3.4 0.1 8.2 0 11.8C167.9 136.9 167.9 137 167.8 137z" class="a"/><path d="M176 137c-3.6 0-6.3-2.8-6.3-6.2s2.7-6.3 6.3-6.3c3.6 0 6.3 2.8 6.3 6.3S179.5 137 176 137zM176 127.5c-1.9 0-3 1.4-3 3.2s1.1 3.2 3 3.2 3-1.4 3-3.2S177.8 127.5 176 127.5z" class="a"/><path d="M191.6 136.7c-1.1 0-6.4 0-7.4 0 -0.2 0-0.2 0-0.2-0.2 0-4.5 0-7.4 0-11.6 0-0.2 0-0.2 0.2-0.2 1 0 1.8 0 2.9 0 0.1 0 0.2 0 0.2 0.2 0 1.9 0 9 0 9l4.4-0.1c0.1 0 0.2 0 0.2 0.2 0 0.7 0 1.2 0 2.6C191.7 136.6 191.7 136.7 191.6 136.7z" class="a"/><path d="M198.2 137c-3.6 0-6.2-2.8-6.2-6.2s2.7-6.3 6.3-6.3c3.6 0 6.3 2.8 6.3 6.3S201.8 137 198.2 137zM198.2 127.5c-1.9 0-3 1.4-3 3.2s1.1 3.2 3 3.2c1.9 0 3-1.4 3-3.2S200.1 127.5 198.2 127.5z" class="a"/><path d="M222.6 136.7c-1.2 0-1.8 0-2.9 0 -0.2 0-0.2 0-0.2-0.2 0-4.5 0-7.4 0-11.6 0-0.2 0-0.2 0.2-0.2 1.1 0 1.8 0 2.9 0 0.2 0 0.2 0 0.2 0.2 0 2.7 0 8.9 0 11.6C222.8 136.6 222.7 136.7 222.6 136.7z" class="a"/><path d="M233.7 136.7h-8c-0.2 0-0.2 0-0.2-0.2 0-3.1 0-8.1 0-11.5 0-0.2 0-0.2 0.2-0.2h8c0.2 0 0.2 0 0.2 0.2 0 0.9 0 1.4 0 2.2 0 0.2 0 0.3-0.2 0.3h-5v2h4.9c0.2 0 0.2 0 0.2 0.3 0 0.9 0 1.5 0 2.2 0 0.2 0 0.3-0.2 0.3h-4.9v2h5.2c0.2 0 0.2 0 0.2 0.2 0 0.9 0 1.6 0 2.3C233.8 136.6 233.8 136.7 233.7 136.7z" class="a"/><path d="M239.5 137c-2.4 0-3.9-1-4.5-2.7 -0.1-0.2 0-0.3 0.1-0.3l2.2-0.9c0.2 0 0.2 0 0.2 0.1 0.2 0.7 1 1.4 2.1 1.4 1.2 0 1.8-0.4 1.8-1.2 0-0.7-0.5-1.2-2.1-1.4 -0.1 0-0.3 0-0.4 0 -2.1-0.2-3.6-1.4-3.6-3.6 0-2.3 1.6-3.9 4.7-3.9 2.3 0 3.8 1.1 4.3 2.6 0.1 0.2 0 0.3-0.1 0.3l-2.1 0.8c-0.1 0.1-0.2 0-0.2-0.1 -0.2-0.7-1.1-1.4-2-1.4 -1.2 0-1.6 0.5-1.6 1.1 0 0.8 0.7 1.2 2.2 1.4 0.2 0 0.4 0.1 0.6 0.1 2.3 0.3 3.6 1.5 3.6 3.7C244.4 135.8 242.2 137 239.5 137z" class="a"/><path d="M217.5 130.3h-2.6 -1.5c-0.2 0-0.2 0-0.2 0.3v1.7c0 0.2 0 0.3 0.2 0.3h1.2c-0.4 0.9-1.1 1.5-2.3 1.5 -1.8 0-2.9-1.2-2.9-3.2 0-1.9 1.1-3.2 3-3.2 1.2 0 2 0.6 2.4 1.4 0.1 0.1 0.1 0.2 0.3 0.1l2.6-1c0.1 0 0.1-0.2 0-0.3 -0.8-1.8-2.4-3.2-5.3-3.2 -3.5 0-6.2 2.5-6.2 6.3 0 3.7 2.4 6.2 6.2 6.2 1.8 0 2.6-0.6 3.2-1.2 0.2-0.2 0.4-0.4 0.4-0.4S217.5 137 217.6 137.1c0 0 0.1 0.1 0.2 0.1 0.2 0 0.2-0.1 0.2-0.1v-6.5C217.6 130.3 217.6 130.3 217.5 130.3z" class="a"/></svg>